<svg width="709" height="387" viewBox="0 0 709 387" fill="none" xmlns="http://www.w3.org/2000/svg">
<path fill-rule="evenodd" clip-rule="evenodd" d="M411.088 15.3643L358.693 144.041L266.841 149.914C268.99 147.64 271.029 145.277 272.952 142.828C299.1 140.107 325.245 137.381 351.388 134.634L395.345 27.8154L396.936 23.9467C356.804 25.7428 316.672 27.5611 276.538 29.3226C274.832 26.6932 273.026 24.1703 271.127 21.7588L411.087 15.3643H411.088ZM360.87 46.0007L354.278 53.1939L344.974 54.0282C345.579 55.0429 345.977 56.2468 346.163 57.6042C346.347 58.9626 346.282 60.5572 345.984 62.3706L356.053 61.4682L349.459 68.6614L343.868 69.1626C342.824 71.4263 341.464 73.5488 339.821 75.5303C338.18 77.5098 336.27 79.256 334.119 80.7766C331.966 82.3011 329.59 83.5357 326.981 84.5187C324.357 85.5027 321.583 86.119 318.634 86.384L336.552 113.82L324.636 114.89L307.404 88.1082L309.52 81.3181L316.105 80.7276C318.165 80.5414 320.14 80.167 322.034 79.6141C323.914 79.063 325.674 78.3248 327.298 77.4003C328.923 76.4758 330.373 75.3987 331.63 74.1699C332.906 72.9401 333.964 71.5472 334.794 69.9747L310.226 72.1798L316.821 64.9875L336.865 63.1894C337 60.609 336.19 58.6362 334.434 57.2663C332.662 55.8973 329.852 55.3857 325.969 55.7341L315.046 56.7143L321.638 49.521L360.872 45.9997L360.87 46.0007ZM347.667 129.653L388.817 29.6567L279.694 34.521C280.98 36.7809 282.201 39.1089 283.343 41.5098C293.099 62.001 295.905 85.5555 290.332 107.635C287.619 118.377 283.126 128.187 277.196 137L347.666 129.654L347.667 129.653Z" fill="#62B034"/>
<path fill-rule="evenodd" clip-rule="evenodd" d="M413.951 42.3104L367.735 155.349L260.004 161.908L388.657 166.591L447.363 39.1875L413.951 42.3104Z" fill="black"/>
<path fill-rule="evenodd" clip-rule="evenodd" d="M447.679 70.6075L396.846 183.742L214.965 174.243L416.518 199.448L474.01 70.0449L447.679 70.6075Z" fill="black"/>
<path fill-rule="evenodd" clip-rule="evenodd" d="M201.727 38.8731C174.509 34.603 153.156 53.9153 149.434 76.1786C144.878 103.436 164.86 124.86 187.758 128.239C247.406 137.039 260.518 48.0968 201.727 38.8741V38.8731ZM122.892 128.08C121.894 122.789 118.295 118.131 116.044 112.246C99.5211 69.0746 123.484 19.0875 168.241 4.82578C261.153 -24.7806 322.689 99.6996 237.332 154.705C210.97 171.692 177.159 168.783 150.928 154.305L97.7864 206.091C105.447 213.283 113.2 220.543 127.943 212.833C136.76 208.223 146.232 200.113 151.824 194.482C157.181 199.066 176.205 216.656 178.804 221.783C150.702 251.065 136.018 241.615 113.314 238.727C116.872 250.723 119.588 263.466 115.397 276.261C112.198 286.028 102.032 299.955 96.3195 303.389L68.9624 276.472C79.6702 261.767 103.819 246.779 81.0517 223.302L26.5852 276.07C21.983 272.665 2.32892 253.664 0.0105286 249.245L122.892 128.08Z" fill="black"/>
<path d="M216.929 303.609C212.259 303.609 209.924 302.364 209.924 299.873V236.941H191.359C189.024 236.941 187.857 234.995 187.857 231.103V227.484C187.857 223.592 189.024 221.646 191.359 221.646H246.586C248.921 221.646 250.088 223.592 250.088 227.484V231.103C250.088 234.995 248.921 236.941 246.586 236.941H228.021V299.873C228.021 302.364 225.686 303.609 221.016 303.609H216.929Z" fill="#62B034"/>
<path d="M286.509 304.31C274.522 304.31 265.259 300.729 258.72 293.568C252.26 286.329 249.03 275.977 249.03 262.511C249.03 249.045 252.26 238.731 258.72 231.57C265.259 224.331 274.522 220.712 286.509 220.712C298.574 220.712 307.797 224.331 314.18 231.57C320.641 238.731 323.871 249.045 323.871 262.511C323.871 275.977 320.641 286.329 314.18 293.568C307.797 300.729 298.574 304.31 286.509 304.31ZM286.509 289.015C292.736 289.015 297.445 286.758 300.636 282.243C303.828 277.65 305.423 271.073 305.423 262.511C305.423 253.949 303.828 247.41 300.636 242.896C297.445 238.381 292.736 236.124 286.509 236.124C280.282 236.124 275.533 238.381 272.264 242.896C269.073 247.41 267.477 253.949 267.477 262.511C267.477 271.073 269.073 277.65 272.264 282.243C275.533 286.758 280.282 289.015 286.509 289.015Z" fill="#62B034"/>
<path d="M211.434 385.518V366.096L199.46 348.45C199.154 348.031 199.002 347.686 199.002 347.419C199.002 346.77 199.88 346.445 201.637 346.445H202.267C203.527 346.445 204.348 346.731 204.73 347.304L214.126 361.398L223.752 347.246C224.095 346.712 225.05 346.445 226.615 346.445C228.181 346.445 228.964 346.769 228.964 347.419C228.964 347.572 228.812 347.915 228.505 348.45L216.475 366.269V385.518C216.475 386.359 215.711 386.779 214.183 386.779H213.724C212.197 386.779 211.433 386.359 211.433 385.518L211.434 385.518ZM246.411 387.007C242.114 387.007 238.829 385.709 236.557 383.111C234.285 380.513 233.148 376.742 233.148 371.795C233.148 366.849 234.294 363.039 236.586 360.366C238.877 357.692 242.143 356.355 246.384 356.355C250.623 356.355 253.86 357.682 256.094 360.337C258.329 362.991 259.445 366.811 259.445 371.795C259.445 376.78 258.347 380.561 256.152 383.14C253.955 385.718 250.708 387.007 246.412 387.007H246.411ZM240.138 380.161C241.437 381.975 243.48 382.882 246.268 382.882C249.056 382.882 251.118 381.975 252.456 380.161C253.793 378.346 254.461 375.53 254.461 371.71C254.461 367.89 253.793 365.064 252.456 363.23C251.118 361.397 249.056 360.48 246.268 360.48C243.48 360.48 241.437 361.387 240.138 363.201C238.839 365.016 238.19 367.842 238.19 371.681C238.19 375.519 238.839 378.346 240.138 380.161ZM266.894 377.725V357.845C266.894 357.005 267.658 356.584 269.185 356.584H269.415C270.943 356.584 271.706 357.005 271.706 357.845V377.266C271.706 379.023 272.212 380.389 273.224 381.363C274.236 382.337 275.678 382.824 277.55 382.824C280.3 382.824 282.706 381.486 284.769 378.813V357.844C284.769 357.004 285.533 356.583 287.061 356.583H287.29C288.818 356.583 289.582 357.004 289.582 357.844V378.183C289.582 380.475 289.678 382.136 289.868 383.167C290.134 384.581 290.269 385.326 290.269 385.402C290.269 385.861 289.906 386.195 289.18 386.405C288.455 386.615 287.891 386.719 287.49 386.719C287.088 386.719 286.812 386.681 286.659 386.604C286.507 386.527 286.364 386.394 286.229 386.203C286.096 386.012 285.99 385.83 285.914 385.659C285.838 385.487 285.762 385.248 285.685 384.942C285.608 384.637 285.542 384.398 285.484 384.226C285.428 384.054 285.37 383.788 285.312 383.425C285.256 383.062 285.208 382.823 285.169 382.709C282.61 385.573 279.755 387.006 276.604 387.006C273.453 387.006 271.047 386.184 269.385 384.541C267.723 382.899 266.893 380.626 266.893 377.723L266.894 377.725ZM299.665 385.518V365.407C299.665 363.078 299.569 361.416 299.379 360.423C299.112 359.048 298.978 358.303 298.978 358.188C298.978 357.729 299.341 357.395 300.067 357.186C300.792 356.976 301.356 356.871 301.757 356.871C302.158 356.871 302.435 356.91 302.588 356.985C302.74 357.062 302.883 357.186 303.018 357.358C303.151 357.53 303.257 357.702 303.333 357.873C303.409 358.045 303.485 358.275 303.562 358.561C303.639 358.847 303.705 359.076 303.763 359.248C303.819 359.42 303.877 359.669 303.934 359.993C303.991 360.318 304.039 360.537 304.077 360.652C306.102 357.787 308.317 356.355 310.724 356.355C311.793 356.355 312.614 356.565 313.187 356.984C313.76 357.405 314.046 357.94 314.046 358.589C314.046 359.238 313.932 359.916 313.702 360.623C313.473 361.329 313.206 361.683 312.9 361.683C312.747 361.683 312.375 361.578 311.782 361.368C311.19 361.158 310.484 361.053 309.663 361.053C308.841 361.053 307.991 361.349 307.113 361.941C306.235 362.533 305.585 363.116 305.165 363.688L304.478 364.547V385.517C304.478 386.358 303.714 386.777 302.186 386.777H301.957C300.429 386.777 299.665 386.358 299.665 385.517V385.518ZM335.417 385.518V360.824H333.125C332.361 360.824 331.979 360.251 331.979 359.105V358.418C331.979 357.271 332.361 356.698 333.125 356.698H335.417V351.256C335.417 347.971 336.295 345.795 338.052 344.724C339.542 343.808 341.126 343.35 342.807 343.35C345.595 343.35 346.989 343.923 346.989 345.069C346.989 345.451 346.875 345.995 346.646 346.702C346.416 347.408 346.13 347.762 345.787 347.762C345.71 347.762 345.443 347.714 344.984 347.619C344.526 347.524 343.886 347.476 343.065 347.476C342.243 347.476 341.565 347.753 341.031 348.306C340.496 348.86 340.229 349.997 340.229 351.715V356.699H345.213C345.978 356.699 346.359 357.272 346.359 358.419V359.106C346.359 360.252 345.977 360.825 345.213 360.825H340.229V385.518C340.229 386.359 339.465 386.779 337.938 386.779H337.708C336.181 386.779 335.417 386.359 335.417 385.518V385.518ZM355.125 349.48C353.598 349.48 352.834 349.06 352.834 348.22V344.839C352.834 343.999 353.598 343.579 355.125 343.579H355.813C357.34 343.579 358.104 343.999 358.104 344.839V348.22C358.104 349.06 357.34 349.48 355.813 349.48H355.125ZM353.063 385.518V357.845C353.063 357.005 353.828 356.584 355.355 356.584H355.584C357.112 356.584 357.876 357.005 357.876 357.845V385.518C357.876 386.358 357.112 386.778 355.584 386.778H355.355C353.828 386.778 353.063 386.358 353.063 385.518ZM367.96 385.518V365.407C367.96 363.078 367.864 361.416 367.674 360.423C367.406 359.048 367.272 358.303 367.272 358.188C367.272 357.729 367.635 357.395 368.361 357.186C369.087 356.976 369.65 356.871 370.051 356.871C370.453 356.871 370.729 356.91 370.882 356.985C371.034 357.062 371.178 357.186 371.312 357.358C371.445 357.53 371.55 357.702 371.627 357.873C371.704 358.045 371.779 358.275 371.856 358.561C371.933 358.847 371.999 359.076 372.057 359.248C372.115 359.42 372.172 359.669 372.229 359.993C372.286 360.318 372.333 360.537 372.372 360.652C374.931 357.787 377.786 356.355 380.937 356.355C384.088 356.355 386.494 357.176 388.155 358.818C389.817 360.461 390.647 362.733 390.647 365.636V385.517C390.647 386.358 389.883 386.777 388.356 386.777H388.126C386.599 386.777 385.835 386.358 385.835 385.517V366.095C385.835 364.338 385.329 362.973 384.317 361.999C383.305 361.024 381.863 360.537 379.991 360.537C377.241 360.537 374.835 361.875 372.772 364.548V385.518C372.772 386.358 372.008 386.778 370.481 386.778H370.251C368.724 386.778 367.96 386.358 367.96 385.518ZM416.774 367.986V365.293C416.774 362.085 414.672 360.481 410.471 360.481C407.722 360.481 405.182 361.073 402.852 362.257C402.05 362.676 401.61 362.887 401.535 362.887C401.153 362.887 400.722 362.504 400.245 361.74C399.768 360.976 399.529 360.403 399.529 360.022C399.529 359.219 400.647 358.408 402.881 357.586C405.115 356.765 407.799 356.355 410.93 356.355C414.063 356.355 416.621 357.148 418.607 358.733C420.593 360.318 421.586 362.524 421.586 365.35V378.183C421.586 380.475 421.682 382.136 421.872 383.167C422.14 384.581 422.273 385.326 422.273 385.402C422.273 385.861 421.911 386.195 421.185 386.405C420.459 386.615 419.896 386.719 419.494 386.719C419.093 386.719 418.816 386.681 418.664 386.604C418.511 386.527 418.368 386.394 418.234 386.203C418.1 386.012 417.996 385.83 417.919 385.659C417.842 385.487 417.766 385.248 417.689 384.942C417.613 384.637 417.546 384.398 417.489 384.226C417.431 384.054 417.374 383.788 417.317 383.425C417.259 383.062 417.212 382.823 417.174 382.709C414.576 385.573 411.368 387.006 407.549 387.006C404.608 387.006 402.239 386.28 400.445 384.828C398.65 383.377 397.752 381.143 397.752 378.125C397.752 375.107 398.793 372.845 400.875 371.335C402.956 369.826 405.296 368.91 407.894 368.585C410.49 368.261 413.451 368.06 416.774 367.984V367.986ZM402.908 378.126C402.908 381.259 404.532 382.825 407.778 382.825C409.649 382.825 411.263 382.481 412.62 381.794C413.975 381.106 415.36 380.132 416.774 378.871V372.111C411.999 372.111 408.925 372.379 407.55 372.913C406.824 373.181 406.06 373.524 405.258 373.944C403.693 374.745 402.909 376.139 402.909 378.126L402.908 378.126ZM431.097 385.518V365.407C431.097 363.078 431.001 361.416 430.811 360.423C430.543 359.048 430.409 358.303 430.409 358.188C430.409 357.729 430.772 357.395 431.498 357.186C432.224 356.976 432.787 356.871 433.188 356.871C433.589 356.871 433.865 356.91 434.018 356.985C434.171 357.062 434.314 357.186 434.448 357.358C434.582 357.53 434.686 357.702 434.763 357.873C434.84 358.045 434.916 358.275 434.992 358.561C435.069 358.847 435.136 359.076 435.193 359.248C435.251 359.42 435.308 359.669 435.365 359.993C435.423 360.318 435.47 360.537 435.508 360.652C438.067 357.787 440.922 356.355 444.073 356.355C447.224 356.355 449.631 357.176 451.292 358.818C452.954 360.461 453.784 362.733 453.784 365.636V385.517C453.784 386.358 453.02 386.777 451.493 386.777H451.263C449.736 386.777 448.972 386.358 448.972 385.517V366.095C448.972 364.338 448.466 362.973 447.454 361.999C446.442 361.024 445 360.537 443.128 360.537C440.378 360.537 437.972 361.875 435.909 364.548V385.518C435.909 386.358 435.145 386.778 433.618 386.778H433.388C431.861 386.778 431.097 386.358 431.097 385.518ZM461.061 371.538C461.061 368.673 461.453 366.21 462.235 364.147C463.019 362.085 464.078 360.499 465.416 359.391C467.937 357.367 471.012 356.355 474.64 356.355C476.855 356.355 478.841 356.622 480.598 357.156C482.355 357.691 483.233 358.303 483.233 358.99C483.233 359.486 483.014 360.127 482.575 360.909C482.136 361.692 481.744 362.084 481.4 362.084C481.361 362.084 481.295 362.065 481.199 362.026C481.103 361.988 481.027 361.959 480.97 361.941C480.913 361.922 480.846 361.893 480.769 361.855C478.706 360.939 476.625 360.48 474.524 360.48C468.986 360.48 466.216 364.128 466.216 371.423C466.216 375.471 466.894 378.393 468.251 380.189C469.607 381.984 471.889 382.881 475.097 382.881C477.427 382.881 479.585 382.385 481.572 381.391C481.686 381.353 481.811 381.305 481.944 381.248C482.078 381.191 482.164 381.162 482.202 381.162C482.584 381.162 483.005 381.534 483.463 382.279C483.922 383.024 484.15 383.626 484.15 384.084C484.15 384.773 483.253 385.431 481.457 386.061C479.662 386.692 477.562 387.006 475.155 387.006C470.418 387.006 466.886 385.784 464.556 383.339C462.226 380.895 461.06 376.961 461.06 371.537L461.061 371.538ZM493.145 349.48C491.618 349.48 490.854 349.06 490.854 348.22V344.839C490.854 343.999 491.618 343.579 493.145 343.579H493.833C495.36 343.579 496.124 343.999 496.124 344.839V348.22C496.124 349.06 495.36 349.48 493.833 349.48H493.145ZM491.083 385.518V357.845C491.083 357.005 491.847 356.584 493.375 356.584H493.604C495.132 356.584 495.896 357.005 495.896 357.845V385.518C495.896 386.358 495.132 386.778 493.604 386.778H493.375C491.847 386.778 491.083 386.358 491.083 385.518ZM522.88 367.986V365.293C522.88 362.085 520.779 360.481 516.578 360.481C513.828 360.481 511.287 361.073 508.957 362.257C508.156 362.676 507.716 362.887 507.64 362.887C507.258 362.887 506.828 362.504 506.351 361.74C505.874 360.976 505.635 360.403 505.635 360.022C505.635 359.219 506.752 358.408 508.986 357.586C511.221 356.765 513.904 356.355 517.036 356.355C520.168 356.355 522.727 357.148 524.713 358.733C526.699 360.318 527.692 362.524 527.692 365.35V378.183C527.692 380.475 527.788 382.136 527.978 383.167C528.246 384.581 528.379 385.326 528.379 385.402C528.379 385.861 528.016 386.195 527.291 386.405C526.565 386.615 526.001 386.719 525.6 386.719C525.199 386.719 524.922 386.681 524.77 386.604C524.617 386.527 524.474 386.394 524.339 386.203C524.206 386.012 524.101 385.83 524.025 385.659C523.948 385.487 523.872 385.248 523.795 384.942C523.718 384.637 523.652 384.398 523.595 384.226C523.537 384.054 523.48 383.788 523.423 383.425C523.365 383.062 523.318 382.823 523.28 382.709C520.682 385.573 517.474 387.006 513.655 387.006C510.713 387.006 508.345 386.28 506.551 384.828C504.756 383.377 503.858 381.143 503.858 378.125C503.858 375.107 504.899 372.845 506.981 371.335C509.062 369.826 511.402 368.91 513.999 368.585C516.597 368.261 519.557 368.06 522.88 367.984V367.986ZM509.015 378.126C509.015 381.259 510.638 382.825 513.885 382.825C515.757 382.825 517.371 382.481 518.726 381.794C520.082 381.106 521.467 380.132 522.88 378.871V372.111C518.105 372.111 515.031 372.379 513.656 372.913C512.93 373.181 512.166 373.524 511.364 373.944C509.798 374.745 509.015 376.139 509.015 378.126V378.126ZM536.974 379.101V344.839C536.974 343.999 537.738 343.579 539.266 343.579H539.495C541.023 343.579 541.787 343.999 541.787 344.839V378.642C541.787 381.468 542.818 382.882 544.881 382.882C545.53 382.882 546.083 382.834 546.541 382.739C547 382.643 547.267 382.596 547.343 382.596C547.687 382.596 547.974 382.95 548.202 383.656C548.432 384.363 548.546 384.907 548.546 385.289C548.546 386.435 547.152 387.008 544.363 387.008C542.454 387.008 540.744 386.426 539.236 385.261C537.727 384.097 536.973 382.043 536.973 379.102L536.974 379.101ZM569.23 385.518V360.824H566.938C566.174 360.824 565.792 360.251 565.792 359.105V358.418C565.792 357.271 566.174 356.698 566.938 356.698H569.23V351.256C569.23 347.971 570.108 345.795 571.865 344.724C573.355 343.808 574.94 343.35 576.621 343.35C579.409 343.35 580.804 343.923 580.804 345.069C580.804 345.451 580.69 345.995 580.46 346.702C580.231 347.408 579.945 347.762 579.601 347.762C579.524 347.762 579.257 347.714 578.798 347.619C578.34 347.524 577.7 347.476 576.879 347.476C576.057 347.476 575.38 347.753 574.845 348.306C574.31 348.86 574.042 349.997 574.042 351.715V356.699H579.028C579.792 356.699 580.173 357.272 580.173 358.419V359.106C580.173 360.252 579.791 360.825 579.028 360.825H574.042V385.518C574.042 386.359 573.278 386.779 571.751 386.779H571.521C569.994 386.779 569.23 386.359 569.23 385.518V385.518ZM586.819 385.518V365.407C586.819 363.078 586.723 361.416 586.533 360.423C586.266 359.048 586.132 358.303 586.132 358.188C586.132 357.729 586.495 357.395 587.22 357.186C587.946 356.976 588.51 356.871 588.911 356.871C589.312 356.871 589.589 356.91 589.741 356.985C589.894 357.062 590.037 357.186 590.171 357.358C590.305 357.53 590.41 357.702 590.486 357.873C590.563 358.045 590.639 358.275 590.716 358.561C590.793 358.847 590.859 359.076 590.916 359.248C590.973 359.42 591.031 359.669 591.088 359.993C591.145 360.318 591.193 360.537 591.231 360.652C593.255 357.787 595.471 356.355 597.876 356.355C598.946 356.355 599.767 356.565 600.34 356.984C600.913 357.405 601.199 357.94 601.199 358.589C601.199 359.238 601.085 359.916 600.855 360.623C600.626 361.329 600.359 361.683 600.053 361.683C599.9 361.683 599.528 361.578 598.935 361.368C598.343 361.158 597.636 361.053 596.815 361.053C595.994 361.053 595.144 361.349 594.266 361.941C593.387 362.533 592.737 363.116 592.318 363.688L591.631 364.547V385.517C591.631 386.358 590.866 386.777 589.339 386.777H589.11C587.581 386.777 586.818 386.358 586.818 385.517L586.819 385.518ZM609.908 349.48C608.381 349.48 607.616 349.06 607.616 348.22V344.839C607.616 343.999 608.381 343.579 609.908 343.579H610.595C612.123 343.579 612.887 343.999 612.887 344.839V348.22C612.887 349.06 612.123 349.48 610.595 349.48H609.908ZM607.846 385.518V357.845C607.846 357.005 608.61 356.584 610.137 356.584H610.367C611.894 356.584 612.658 357.005 612.658 357.845V385.518C612.658 386.358 611.894 386.778 610.367 386.778H610.137C608.61 386.778 607.846 386.358 607.846 385.518ZM635.002 387.007C630.228 387.007 626.694 385.766 624.403 383.283C622.111 380.8 620.965 377.009 620.965 371.91C620.965 366.811 622.092 362.944 624.345 360.309C626.599 357.673 629.808 356.356 633.97 356.356C642.068 356.356 646.116 361.34 646.116 371.31C646.116 371.653 645.887 372.131 645.429 372.742C644.971 373.353 644.57 373.659 644.226 373.659H626.121C626.351 376.829 627.172 379.158 628.585 380.648C629.998 382.138 632.118 382.883 634.944 382.883C637.541 382.883 639.928 382.272 642.105 381.05C642.831 380.668 643.232 380.477 643.309 380.477C643.691 380.477 644.12 380.859 644.598 381.623C645.077 382.387 645.315 382.96 645.315 383.342C645.315 384.106 644.274 384.908 642.193 385.749C640.111 386.589 637.714 387.009 635.002 387.009V387.007ZM641.018 369.534C641.018 363.498 638.726 360.481 634.143 360.481C629.215 360.481 626.542 363.498 626.122 369.534H641.019H641.018ZM653.622 385.518V365.407C653.622 363.078 653.526 361.416 653.336 360.423C653.068 359.048 652.935 358.303 652.935 358.188C652.935 357.729 653.298 357.395 654.024 357.186C654.749 356.976 655.313 356.871 655.714 356.871C656.116 356.871 656.392 356.91 656.545 356.985C656.697 357.062 656.84 357.186 656.975 357.358C657.108 357.53 657.213 357.702 657.29 357.873C657.366 358.045 657.442 358.275 657.519 358.561C657.596 358.847 657.662 359.076 657.72 359.248C657.777 359.42 657.835 359.669 657.892 359.993C657.949 360.318 657.996 360.537 658.035 360.652C660.594 357.787 663.448 356.355 666.6 356.355C669.75 356.355 672.157 357.176 673.819 358.818C675.481 360.461 676.311 362.733 676.311 365.636V385.517C676.311 386.358 675.547 386.777 674.02 386.777H673.79C672.263 386.777 671.499 386.358 671.499 385.517V366.095C671.499 364.338 670.993 362.973 669.981 361.999C668.969 361.024 667.527 360.537 665.655 360.537C662.905 360.537 660.499 361.875 658.436 364.548V385.518C658.436 386.358 657.672 386.778 656.144 386.778H655.915C654.388 386.778 653.623 386.358 653.623 385.518H653.622ZM703.811 382.71C701.061 385.575 698.005 387.007 694.644 387.007C691.282 387.007 688.6 385.594 686.595 382.767C684.589 379.941 683.587 376.312 683.587 371.882V371.366C683.587 366.668 684.655 362.992 686.795 360.337C688.934 357.682 691.608 356.355 694.816 356.355C698.024 356.355 700.889 357.329 703.41 359.277V344.839C703.41 343.999 704.174 343.579 705.701 343.579H705.931C707.458 343.579 708.222 343.999 708.222 344.839V378.184C708.222 380.476 708.318 382.137 708.508 383.168C708.776 384.582 708.91 385.326 708.91 385.403C708.91 385.862 708.547 386.196 707.821 386.406C707.095 386.616 706.532 386.72 706.131 386.72C705.73 386.72 705.454 386.682 705.301 386.605C705.148 386.528 705.005 386.395 704.871 386.204C704.738 386.013 704.633 385.831 704.556 385.66C704.479 385.488 704.403 385.249 704.327 384.943C704.25 384.638 704.184 384.399 704.126 384.227C704.068 384.055 704.012 383.789 703.954 383.426C703.897 383.063 703.85 382.824 703.811 382.71V382.71ZM688.629 371.252C688.629 378.967 691.111 382.825 696.077 382.825C698.559 382.825 701.004 381.508 703.41 378.871V363.174C701.348 361.454 699.036 360.596 696.477 360.596H696.133C693.689 360.634 691.827 361.57 690.547 363.403C689.267 365.237 688.628 367.853 688.628 371.252H688.629Z" fill="black"/>
<path d="M361.723 306.939V233.067C361.723 230.565 364.069 229.315 368.759 229.315H372.746C377.437 229.315 379.781 230.565 379.781 233.067V296.268H405.929C408.275 296.268 409.448 298.222 409.448 302.131V305.766C409.448 309.675 408.275 311.629 405.929 311.629H366.414C363.287 311.629 361.723 310.065 361.723 306.939ZM425.394 301.721C418.907 294.49 415.662 284.113 415.662 270.59C415.662 257.067 418.907 246.689 425.394 239.458C431.883 232.228 441.185 228.612 453.302 228.612C465.419 228.612 474.701 232.228 481.15 239.458C487.599 246.689 490.824 257.067 490.824 270.59C490.824 284.114 487.599 294.49 481.15 301.721C474.701 308.952 465.419 312.567 453.302 312.567C441.185 312.567 431.883 308.952 425.394 301.721ZM439.055 290.405C442.3 294.94 447.048 297.207 453.302 297.207C459.556 297.207 464.285 294.941 467.49 290.405C470.695 285.871 472.297 279.266 472.297 270.589C472.297 261.912 470.695 255.326 467.49 250.831C464.285 246.337 459.556 244.089 453.302 244.089C447.048 244.089 442.299 246.337 439.055 250.831C435.811 255.326 434.189 261.912 434.189 270.589C434.189 279.266 435.811 285.871 439.055 290.405ZM496.1 309.284C496.1 308.971 496.257 308.267 496.57 307.174L522.366 231.777C522.992 230.136 525.219 229.315 529.049 229.315H535.147C538.978 229.315 541.206 230.136 541.831 231.777L567.628 307.174C567.862 307.955 567.979 308.659 567.979 309.284C567.979 311.003 566.026 311.863 562.116 311.863H556.957C553.127 311.863 550.938 311.043 550.391 309.401L545.7 295.096H518.027L513.338 309.401C512.791 311.043 510.993 311.863 507.944 311.863H503.253C498.485 311.863 496.1 311.003 496.1 309.284ZM523.069 279.618H540.658L533.974 258.747L532.215 251.242H531.746C531.042 254.916 530.456 257.417 529.987 258.747L523.069 279.618ZM576.069 308.112V233.068C576.069 230.566 578.414 229.316 583.105 229.316H588.147C591.899 229.316 594.479 230.371 595.886 232.481L626.725 279.97V233.068C626.725 230.566 629.07 229.316 633.76 229.316H637.16C641.851 229.316 644.196 230.566 644.196 233.068V308.112C644.196 310.613 641.851 311.863 637.16 311.863H632.704C628.952 311.863 626.373 310.808 624.966 308.697L593.541 260.623V308.112C593.541 310.613 591.196 311.863 586.505 311.863H583.105C578.414 311.863 576.069 310.612 576.069 308.112ZM654.866 302.249C654.866 300.451 655.765 298.263 657.562 295.683C659.36 293.103 660.885 291.813 662.136 291.813C662.605 291.813 663.621 292.243 665.185 293.103C670.032 295.839 674.761 297.207 679.373 297.207C686.72 297.207 690.394 294.354 690.394 288.647C690.394 286.145 689.222 284.035 686.877 282.315C684.532 280.595 681.698 279.09 678.375 277.801C675.052 276.51 671.75 275.025 668.467 273.345C665.184 271.664 662.369 269.066 660.025 265.548C657.679 262.031 656.507 257.633 656.507 252.357C656.507 247.081 657.915 242.566 660.728 238.814C665.81 232.013 673.665 228.613 684.296 228.613C690.238 228.613 695.24 229.473 699.305 231.193C703.37 232.912 705.403 234.789 705.403 236.821C705.403 238.542 704.66 240.672 703.175 243.212C701.69 245.752 700.282 247.023 698.954 247.023C698.641 247.023 697.938 246.75 696.843 246.202C693.717 244.795 690.101 244.092 685.997 244.092C681.893 244.092 679.04 244.796 677.437 246.202C675.835 247.61 675.033 249.368 675.033 251.479C675.033 253.589 676.205 255.465 678.551 257.107C680.896 258.749 683.71 260.195 686.993 261.445C690.276 262.696 693.58 264.162 696.901 265.843C700.223 267.523 703.057 270.123 705.402 273.64C707.747 277.158 708.919 281.359 708.919 286.245C708.919 291.13 708.157 295.313 706.633 298.791C705.108 302.269 703.017 304.986 700.359 306.941C695.2 310.693 688.868 312.569 681.364 312.569C673.859 312.569 667.566 311.435 662.485 309.169C657.404 306.902 654.864 304.595 654.864 302.25L654.866 302.249Z" fill="black"/>
<path d="M510.055 188.825V109.493C510.055 106.849 512.513 105.527 517.429 105.527H521.731C526.647 105.527 529.106 106.85 529.106 109.493V142.714L529.597 142.838L550.984 107.882C551.886 106.313 554.343 105.527 558.359 105.527H564.135C568.724 105.527 571.018 106.148 571.018 107.387C571.018 108.13 570.691 108.998 570.035 109.989L546.314 146.681L573.231 188.33C573.887 189.322 574.214 190.19 574.214 190.933C574.214 192.172 571.92 192.792 567.331 192.792H560.202C556.105 192.792 553.606 192.007 552.705 190.436L529.597 152.753L529.106 152.877V188.824C529.106 191.469 526.647 192.791 521.731 192.791H517.429C512.513 192.791 510.055 191.469 510.055 188.824V188.825ZM580.851 187.586V110.732C580.851 107.427 582.489 105.774 585.767 105.774H630.752C633.211 105.774 634.44 107.84 634.44 111.972V115.815C634.44 119.947 633.211 122.012 630.752 122.012H599.779V139.986H627.434C629.892 139.986 631.121 142.051 631.121 146.183V150.026C631.121 154.158 629.892 156.224 627.434 156.224H599.779V176.304H630.875C633.334 176.304 634.563 178.37 634.563 182.502V186.345C634.563 190.477 633.334 192.543 630.875 192.543H585.767C582.489 192.543 580.851 190.889 580.851 187.584V187.586ZM664.43 188.825V150.895L639.971 111.105C639.151 109.7 638.743 108.668 638.743 108.006C638.743 106.354 641.364 105.527 646.609 105.527H651.894C655.909 105.527 658.368 106.313 659.269 107.882L674.264 134.409L689.382 107.882C690.284 106.313 692.742 105.527 696.757 105.527H701.182C706.344 105.527 708.925 106.354 708.925 108.006C708.925 108.833 708.556 109.866 707.819 111.105L683.36 151.267V188.826C683.36 191.471 680.902 192.793 675.986 192.793H671.807C666.891 192.793 664.432 191.471 664.432 188.826L664.43 188.825Z" fill="black"/>
<path fill-rule="evenodd" clip-rule="evenodd" d="M171.716 361.43H0.0105286V368.929H171.716V361.43Z" fill="black"/>
</svg>
