<svg width="360" height="307" viewBox="0 0 360 307" fill="none" xmlns="http://www.w3.org/2000/svg">
<path d="M214.238 170.961V183.348C214.238 183.93 214.254 184.89 213.672 184.89H147.663C146.888 184.89 146.739 183.767 146.739 182.991V170.961C146.739 170.961 146.285 170.931 146.217 170.925C142.047 170.585 46.0919 162.349 0 123.618V291.749C0 299.961 6.83578 306.194 15.048 306.194H345.61C353.822 306.194 359.999 299.961 359.999 291.749V124.369C313.601 162.5 218.841 170.615 214.696 170.953C214.627 170.959 214.238 170.961 214.238 170.961Z" fill="white"/>
<path d="M214.644 165.325C218.059 165.325 316.715 156.581 359.999 117.613V57.2675C359.999 49.0553 353.823 42.0647 345.61 42.0647H267.064V38.8475C267.064 17.4594 249.757 0 228.369 0H132.289C110.9 0 93.913 17.4594 93.913 38.8475V42.0647H15.048C6.83579 42.0647 0 49.0553 0 57.2675V116.828C42.8357 156.47 142.754 165.326 146.204 165.326L214.644 165.325ZM110.543 38.8469C110.543 26.8086 120.25 16.6296 132.289 16.6296H228.37C240.408 16.6296 250.435 26.8086 250.435 38.8469V42.0641H110.543V38.8469Z" fill="white"/>
</svg>
