<svg width="361" height="322" viewBox="0 0 361 322" fill="none" xmlns="http://www.w3.org/2000/svg">
<g clip-path="url(#clip0_342_592)">
<path d="M193.3 101.2V60.4999C193.3 57.3999 194.9 54.5999 197.6 52.7999C200.3 50.9999 201.4 51.0999 203.4 51.0999C205.4 51.0999 208.9 52.1999 210.9 54.1999C216.7 60.1999 224.8 63.5999 233.2 63.5999H245.5C254 63.5999 262.1 60.1999 267.9 54.1999C271.3 50.5999 277.1 49.9999 281.3 52.7999C285.5 55.5999 285.6 57.3999 285.6 60.4999V101.2C285.6 125.4 264.9 145.2 239.5 145.2C214 145.1 193.3 125.4 193.3 101.2ZM181.5 60.4999C181.5 53.4999 185.1 46.8999 191.1 42.8999C200.1 36.8999 212.1 38.1999 219.5 45.8999C223 49.5999 228.1 51.6999 233.4 51.6999H245.7C251 51.6999 256 49.5999 259.6 45.8999C267.1 38.1999 279 36.8999 288 42.8999C297 48.8999 297.6 53.3999 297.6 60.4999V74.1999C303.8 66.1999 306.5 55.9999 304.8 46.2999C302.8 34.9999 296.9 33.2999 294.9 32.6999C287.9 30.5999 282.7 24.7999 281.6 17.8999C280.7 12.5999 277.2 8.49993 270.7 5.19993C258.9 -0.800066 243.6 -0.400066 230.1 0.599934C215.5 1.79993 195.7 6.49993 184.3 22.4999C179.1 29.7999 176 38.6999 174.9 48.8999C174 57.7999 176.5 66.5999 181.7 73.7999V60.4999H181.5ZM299.8 169.9L282.7 162.3L274 172.8C274 172.8 273.9 172.8 273.9 173L248.8 203.3L259.5 216.7L299.8 169.9ZM219.7 216.7L230.3 203.3L205.2 173.2C205.2 173.1 205.2 173 205 173H204.9C204.9 172.9 196 162.2 196 162.2L179.1 169.7L219.7 216.7ZM263.3 167.1V152C256.1 155.2 248 156.9 239.6 157H239.3C230.8 157 222.8 155.2 215.6 152V167.2L239.5 195.9L263.3 167.1ZM337.4 186.6C336.9 186.4 336.5 186.2 336.1 186L311.1 174.9L263.7 229.8C262.6 231.1 260.9 231.8 259.2 231.8H259.1C257.3 231.8 255.7 230.9 254.6 229.6L239.8 211H239.4L224.5 229.6C223.4 231 221.8 231.8 220 231.8H219.9C218.2 231.8 216.6 231.1 215.4 229.8L167.9 174.8L142.7 186C136.4 188.8 130.8 192.8 126.2 197.6H152.1C161.7 197.6 169.5 204.5 169.5 213V238.6C169.5 243.5 166.9 248.1 162.5 251C159.6 252.9 156 254 152.3 254.1C151.5 254.2 150.8 254.2 150 254.3V315C150 317.4 149.6 319.6 148.7 321.7H308V241.2C308 237.9 310.6 235.3 313.9 235.3C317.2 235.3 319.8 237.9 319.8 241.2V321.7H360.2L359.7 221.5C359.7 206.5 351.1 193.2 337.4 186.6ZM152.1 242.2C153.6 242.2 155 241.8 156 241.1C156.5 240.7 157.7 239.8 157.7 238.6V213C157.7 211.3 155.4 209.4 152.1 209.4H5.6C2.4 209.4 0 211.3 0 213V238.6C0 240.3 2.4 242.2 5.6 242.2H6.1L13.9 242.8H14.2C22.4 243.4 30.6 243.9 38.8 244.2C43.9 244.4 49 244.6 53.9 244.8V239.1C53.9 235.8 56.5 233.2 59.8 233.2H98C101.3 233.2 103.9 235.8 103.9 239.1V244.7C104.9 244.7 105.8 244.7 106.8 244.6C118.7 244.2 131.1 243.6 143.5 242.7H143.7C146.3 242.5 149 242.3 151.6 242.1C151.8 242.2 151.9 242.2 152.1 242.2ZM92.1 245.1H65.7V257.1H92.1V245.1ZM103.9 256.7V263.1C103.9 266.4 101.3 269 98 269H59.7C56.4 269 53.8 266.4 53.8 263.1V256.8C48.7 256.7 43.5 256.5 38.2 256.2C32 255.9 25.7 255.6 19.4 255.2V315.1C19.4 318.8 22.4 321.8 26.1 321.8H131.4C135.1 321.8 138.1 318.8 138.1 315.1V255.2C127.6 255.9 117.1 256.4 107 256.7C106.1 256.6 105 256.6 103.9 256.7ZM50.4 183.7C50.4 179.4 53.9 175.9 58.2 175.9H99.6C103.9 175.9 107.4 179.4 107.4 183.7V197.6H119.2V183.7C119.2 172.9 110.4 164.1 99.6 164.1H58.2C47.4 164.1 38.6 172.9 38.6 183.7V197.6H50.4V183.7Z" fill="white"/>
</g>
<defs>
<clipPath id="clip0_342_592">
<rect width="360.2" height="321.8" fill="white"/>
</clipPath>
</defs>
</svg>
